<svg width="27" height="25" viewBox="0 0 27 25" fill="none" xmlns="http://www.w3.org/2000/svg">
<path d="M21.9512 0L15.8537 6.09756V19.5122L21.9512 14.0244V0ZM0 6.09756V23.9634C0 24.2683 0.304878 24.5732 0.609756 24.5732C0.731707 24.5732 0.792683 24.5122 0.914634 24.5122C2.56098 23.7195 4.93902 23.1707 6.70732 23.1707C9.08537 23.1707 11.6463 23.6585 13.4146 25V6.09756C11.6463 4.7561 9.08537 4.26829 6.70732 4.26829C4.32927 4.26829 1.76829 4.7561 0 6.09756ZM26.8293 22.561V6.09756C26.0976 5.54878 25.3049 5.18293 24.3902 4.87805V21.3415C23.0488 20.9146 21.5854 20.7317 20.122 20.7317C18.0488 20.7317 15.061 21.5244 13.4146 22.561V25C15.061 23.9634 18.0488 23.1707 20.122 23.1707C22.1341 23.1707 24.2073 23.5366 25.9146 24.4512C26.0366 24.5122 26.0976 24.5122 26.2195 24.5122C26.5244 24.5122 26.8293 24.2073 26.8293 23.9024V22.561Z" fill="#0085E6"/>
</svg>
