<svg width="29" height="29" viewBox="0 0 29 29" fill="none" xmlns="http://www.w3.org/2000/svg">
<path d="M14.5 0C6.4921 0 0 6.4921 0 14.5C0 21.3468 4.74708 27.0815 11.1287 28.6018C10.7986 28.5232 10.4712 28.4351 10.15 28.3347V25.0125C10.15 25.0125 9.60625 25.1937 8.88125 25.1937C6.85292 25.1937 6.01025 23.384 5.8 22.475C5.67229 21.9212 5.33879 21.3964 4.98075 21.0758C4.553 20.6943 4.35279 20.6932 4.35 20.5627C4.34442 20.2888 4.71696 20.3 4.89375 20.3C5.8 20.3 6.48708 21.2642 6.80608 21.7628C7.59633 22.9937 8.44458 23.2 8.88125 23.2C9.425 23.2 9.89458 23.1186 10.218 22.9624C10.3675 21.9095 10.836 20.9715 11.6 20.3C8.19975 19.6202 5.8 17.6699 5.8 14.5C5.8 12.8671 6.45529 11.3663 7.54725 10.1545C7.43571 9.83825 7.25 9.19858 7.25 8.15625C7.25 7.4675 7.29796 6.62204 7.6125 5.8C7.6125 5.8 9.68042 5.8145 11.6307 7.66158C12.5308 7.39946 13.4939 7.25 14.5 7.25C15.5061 7.25 16.4692 7.39946 17.3693 7.66158C19.3196 5.8145 21.3875 5.8 21.3875 5.8C21.7037 6.62204 21.75 7.4675 21.75 8.15625C21.75 9.28 21.6005 9.93529 21.5091 10.218C22.5676 11.4187 23.2 12.8961 23.2 14.5C23.2 17.6699 20.8002 19.6202 17.4 20.3C18.3079 21.0975 18.85 22.2592 18.85 23.5625V28.3347C18.5288 28.4356 18.202 28.5232 17.8712 28.6018C24.2529 27.0815 29 21.3468 29 14.5C29 6.4921 22.5079 0 14.5 0ZM15.5111 28.961C15.177 28.9844 14.8402 29 14.5 29C14.8402 29 15.1765 28.9838 15.5111 28.961ZM17.7268 28.6353C17.0777 28.7831 16.4123 28.8868 15.7331 28.9442C16.4123 28.8868 17.0777 28.7825 17.7268 28.6353ZM14.5 29C14.1598 29 13.823 28.9844 13.4889 28.961C13.8235 28.9838 14.1598 29 14.5 29ZM13.2664 28.9442C12.5877 28.8868 11.9218 28.7831 11.2732 28.6353C11.9223 28.7825 12.5877 28.8868 13.2664 28.9442Z" fill="white"/>
</svg>
