<svg width="25" height="25" viewBox="0 0 25 25" fill="none" xmlns="http://www.w3.org/2000/svg">
<path d="M22.2222 0H2.77778C1.25 0 0 1.25 0 2.77778V22.2222C0 23.75 1.25 25 2.77778 25H22.2222C23.75 25 25 23.75 25 22.2222V2.77778C25 1.25 23.75 0 22.2222 0ZM13.9306 5.63889L15.4028 4.16667L17.3611 6.125L19.3194 4.16667L20.7917 5.63889L18.8333 7.59722L20.7917 9.55556L19.3194 11.0278L17.3611 9.08333L15.4028 11.0417L13.9306 9.56944L15.8889 7.61111L13.9306 5.63889ZM4.51389 6.55555H11.4583V8.63889H4.51389V6.55555ZM11.8056 18.0556H9.02778V20.8333H6.94444V18.0556H4.16667V15.9722H6.94444V13.1944H9.02778V15.9722H11.8056V18.0556ZM20.8333 19.7917H13.8889V17.7083H20.8333V19.7917ZM20.8333 16.3194H13.8889V14.2361H20.8333V16.3194Z" fill="#0085E6"/>
</svg>
