<svg width="29" height="27" viewBox="0 0 29 27" fill="none" xmlns="http://www.w3.org/2000/svg">
<path d="M3.20522 6.39474H3.24292C5.26568 6.39474 6.525 4.97368 6.525 3.19737C6.4873 1.38197 5.26568 0 3.28135 0C1.29703 0 0 1.38197 0 3.19737C0 4.97368 1.2586 6.39474 3.20522 6.39474ZM0 8.52632H6.525V27H0V8.52632ZM29 15.2763C29 11.5482 25.9166 8.52632 22.1125 8.52632C19.8991 8.52632 17.9351 9.55374 16.675 11.1439V8.52632H10.15V27H16.675V16.3421C16.675 14.7726 17.9735 13.5 19.575 13.5C21.1765 13.5 22.475 14.7726 22.475 16.3421V27H29C29 27 29 16.3101 29 15.2763Z" fill="white"/>
</svg>
