<svg width="29" height="29" viewBox="0 0 29 29" fill="none" xmlns="http://www.w3.org/2000/svg">
<path d="M14.5 1.16C7.14444 1.16 1.16 7.14444 1.16 14.5C1.16 16.7968 1.75334 19.0553 2.87854 21.0482L1.18146 27.1034C1.12578 27.3023 1.17972 27.5158 1.32356 27.6637C1.43434 27.7779 1.58514 27.84 1.74 27.84C1.7864 27.84 1.83338 27.8342 1.8792 27.8232L8.19888 26.2578C10.1285 27.2936 12.3018 27.84 14.5 27.84C21.8556 27.84 27.84 21.8556 27.84 14.5C27.84 7.14444 21.8556 1.16 14.5 1.16ZM21.2106 19.2073C20.9252 19.9972 19.5564 20.7182 18.8987 20.815C18.3083 20.9015 17.5612 20.9386 16.7411 20.6811C16.2441 20.5245 15.6061 20.3168 14.7888 19.9682C11.3535 18.5032 9.11006 15.0875 8.93838 14.8619C8.76728 14.6363 7.54 13.0285 7.54 11.3645C7.54 9.7005 8.4245 8.88212 8.73886 8.5434C9.05322 8.20468 9.42384 8.12 9.65236 8.12C9.88088 8.12 10.1088 8.1229 10.3089 8.13218C10.5195 8.14262 10.8019 8.05272 11.0797 8.71276C11.3651 9.3902 12.0501 11.0542 12.1348 11.2242C12.2206 11.3935 12.2774 11.5913 12.1638 11.8169C12.0501 12.0425 11.9932 12.1835 11.8216 12.3813C11.6499 12.579 11.462 12.8221 11.3077 12.974C11.136 13.1428 10.9579 13.3255 11.1575 13.6642C11.357 14.0029 12.0443 15.1102 13.0628 16.0068C14.3707 17.1587 15.4744 17.516 15.8166 17.6854C16.1588 17.8547 16.3589 17.8263 16.5584 17.6007C16.7579 17.3745 17.4145 16.6129 17.6424 16.2748C17.8704 15.9367 18.0989 15.9923 18.4133 16.1054C18.7276 16.218 20.4114 17.0358 20.7536 17.2051C21.0958 17.3745 21.3243 17.4592 21.4101 17.6001C21.496 17.7405 21.496 18.4179 21.2106 19.2073Z" fill="white"/>
</svg>
