<svg width="25" height="19" viewBox="0 0 25 19" fill="none" xmlns="http://www.w3.org/2000/svg">
<path d="M24.9658 14.4307L23.5475 4.46323C23.1831 1.8998 20.9841 0 18.3946 0H6.60541C4.01595 0 1.81687 1.8998 1.45252 4.46323L0.0341786 14.4307C-0.252093 16.4346 1.29638 18.2173 3.31329 18.2173C4.19813 18.2173 5.03092 17.8659 5.65551 17.2414L8.5963 14.3136H16.4037L19.3315 17.2414C19.9561 17.8659 20.8019 18.2173 21.6737 18.2173C23.7036 18.2173 25.2521 16.4346 24.9658 14.4307ZM11.1988 7.80741H8.5963V10.4099H7.29507V7.80741H4.6926V6.50617H7.29507V3.9037H8.5963V6.50617H11.1988V7.80741ZM16.4037 6.50617C15.688 6.50617 15.1025 5.92062 15.1025 5.20494C15.1025 4.48926 15.688 3.9037 16.4037 3.9037C17.1194 3.9037 17.7049 4.48926 17.7049 5.20494C17.7049 5.92062 17.1194 6.50617 16.4037 6.50617ZM19.0062 10.4099C18.2905 10.4099 17.7049 9.82432 17.7049 9.10864C17.7049 8.39296 18.2905 7.80741 19.0062 7.80741C19.7219 7.80741 20.3074 8.39296 20.3074 9.10864C20.3074 9.82432 19.7219 10.4099 19.0062 10.4099Z" fill="#0085E6"/>
</svg>
